<svg xmlns="http://www.w3.org/2000/svg" xmlns:xlink="http://www.w3.org/1999/xlink" width="40" zoomAndPan="magnify" viewBox="0 0 30 30.000001" height="40" preserveAspectRatio="xMidYMid meet" version="1.0"><defs><g/><clipPath id="00c2b81b49"><path d="M 22.308594 2.175781 L 28.753906 2.175781 L 28.753906 26.886719 L 22.308594 26.886719 Z M 22.308594 2.175781 " clip-rule="nonzero"/></clipPath><clipPath id="27fc815af0"><path d="M 1.246094 2.175781 L 7.324219 2.175781 L 7.324219 26.886719 L 1.246094 26.886719 Z M 1.246094 2.175781 " clip-rule="nonzero"/></clipPath></defs><g clip-path="url(#00c2b81b49)"><path fill="#10b981" d="M 23.597656 26.816406 L 22.324219 26.816406 L 22.324219 25.492188 L 23.179688 25.492188 C 24.738281 25.492188 25.128906 24.714844 25.128906 22.871094 C 25.128906 21.132812 24.972656 19.601562 24.972656 17.679688 C 24.972656 15.808594 25.441406 14.875 26.6875 14.539062 L 26.6875 14.433594 C 25.441406 14.097656 24.972656 13.164062 24.972656 11.320312 C 24.972656 9.371094 25.128906 7.867188 25.128906 6.128906 C 25.128906 4.257812 24.738281 3.503906 23.179688 3.503906 L 22.324219 3.503906 L 22.324219 2.15625 L 23.597656 2.15625 C 25.855469 2.15625 26.945312 3.039062 26.945312 5.996094 C 26.945312 8.074219 26.6875 9.578125 26.6875 11.554688 C 26.6875 12.644531 27.203125 13.757812 29.125 13.757812 L 29.125 15.214844 C 27.203125 15.238281 26.6875 16.355469 26.6875 17.445312 C 26.6875 19.367188 26.945312 20.898438 26.945312 23 C 26.945312 25.960938 25.855469 26.816406 23.597656 26.816406 Z M 23.597656 26.816406 " fill-opacity="1" fill-rule="nonzero"/></g><g clip-path="url(#27fc815af0)"><path fill="#10b981" d="M 6.402344 26.816406 L 7.671875 26.816406 L 7.671875 25.492188 L 6.816406 25.492188 C 5.257812 25.492188 4.871094 24.714844 4.871094 22.871094 C 4.871094 21.132812 5.027344 19.601562 5.027344 17.679688 C 5.027344 15.808594 4.558594 14.875 3.3125 14.539062 L 3.3125 14.433594 C 4.558594 14.097656 5.027344 13.164062 5.027344 11.320312 C 5.027344 9.371094 4.871094 7.867188 4.871094 6.128906 C 4.871094 4.257812 5.257812 3.503906 6.816406 3.503906 L 7.671875 3.503906 L 7.671875 2.15625 L 6.402344 2.15625 C 4.144531 2.15625 3.054688 3.039062 3.054688 5.996094 C 3.054688 8.074219 3.3125 9.578125 3.3125 11.554688 C 3.3125 12.644531 2.792969 13.757812 0.871094 13.757812 L 0.871094 15.214844 C 2.792969 15.238281 3.3125 16.355469 3.3125 17.445312 C 3.3125 19.367188 3.054688 20.898438 3.054688 23 C 3.054688 25.960938 4.144531 26.816406 6.402344 26.816406 Z M 6.402344 26.816406 " fill-opacity="1" fill-rule="nonzero"/></g><g fill="#d9d9d9" fill-opacity="1"><g transform="translate(8.071386, 21.029293)"><g><path d="M 12.59375 0 L 9.71875 0 L 9.71875 -5.96875 L 4.125 -5.96875 L 4.125 0 L 1.25 0 L 1.25 -13.9375 L 4.125 -13.9375 L 4.125 -8.296875 L 9.71875 -8.296875 L 9.71875 -13.9375 L 12.59375 -13.9375 Z M 12.59375 0 "/></g></g></g></svg>