<svg xmlns="http://www.w3.org/2000/svg" xmlns:xlink="http://www.w3.org/1999/xlink" width="40" zoomAndPan="magnify" viewBox="0 0 30 30.000001" height="40" preserveAspectRatio="xMidYMid meet" version="1.0"><defs><g/><clipPath id="aca8f95120"><path d="M 19.9375 5.683594 L 24.289062 5.683594 L 24.289062 22.375 L 19.9375 22.375 Z M 19.9375 5.683594 " clip-rule="nonzero"/></clipPath><clipPath id="b987651235"><path d="M 5.707031 5.683594 L 9.8125 5.683594 L 9.8125 22.375 L 5.707031 22.375 Z M 5.707031 5.683594 " clip-rule="nonzero"/></clipPath></defs><g clip-path="url(#aca8f95120)"><path fill="#10b981" d="M 20.808594 22.328125 L 19.949219 22.328125 L 19.949219 21.433594 L 20.527344 21.433594 C 21.578125 21.433594 21.84375 20.90625 21.84375 19.660156 C 21.84375 18.488281 21.738281 17.453125 21.738281 16.15625 C 21.738281 14.890625 22.050781 14.261719 22.894531 14.03125 L 22.894531 13.960938 C 22.050781 13.734375 21.738281 13.101562 21.738281 11.859375 C 21.738281 10.542969 21.84375 9.527344 21.84375 8.351562 C 21.84375 7.089844 21.578125 6.578125 20.527344 6.578125 L 19.949219 6.578125 L 19.949219 5.667969 L 20.808594 5.667969 C 22.332031 5.667969 23.070312 6.265625 23.070312 8.261719 C 23.070312 9.667969 22.894531 10.683594 22.894531 12.015625 C 22.894531 12.753906 23.246094 13.507812 24.542969 13.507812 L 24.542969 14.488281 C 23.246094 14.507812 22.894531 15.261719 22.894531 15.996094 C 22.894531 17.292969 23.070312 18.328125 23.070312 19.75 C 23.070312 21.75 22.332031 22.328125 20.808594 22.328125 Z M 20.808594 22.328125 " fill-opacity="1" fill-rule="nonzero"/></g><g clip-path="url(#b987651235)"><path fill="#10b981" d="M 9.191406 22.328125 L 10.050781 22.328125 L 10.050781 21.433594 L 9.472656 21.433594 C 8.417969 21.433594 8.15625 20.90625 8.15625 19.660156 C 8.15625 18.488281 8.261719 17.453125 8.261719 16.15625 C 8.261719 14.890625 7.945312 14.261719 7.105469 14.03125 L 7.105469 13.960938 C 7.945312 13.734375 8.261719 13.101562 8.261719 11.859375 C 8.261719 10.542969 8.15625 9.527344 8.15625 8.351562 C 8.15625 7.089844 8.417969 6.578125 9.472656 6.578125 L 10.050781 6.578125 L 10.050781 5.667969 L 9.191406 5.667969 C 7.664062 5.667969 6.929688 6.265625 6.929688 8.261719 C 6.929688 9.667969 7.105469 10.683594 7.105469 12.015625 C 7.105469 12.753906 6.753906 13.507812 5.457031 13.507812 L 5.457031 14.488281 C 6.753906 14.507812 7.105469 15.261719 7.105469 15.996094 C 7.105469 17.292969 6.929688 18.328125 6.929688 19.75 C 6.929688 21.75 7.664062 22.328125 9.191406 22.328125 Z M 9.191406 22.328125 " fill-opacity="1" fill-rule="nonzero"/></g><g fill="#737373" fill-opacity="1"><g transform="translate(10.319373, 18.418056)"><g><path d="M 8.5 0 L 6.5625 0 L 6.5625 -4.03125 L 2.78125 -4.03125 L 2.78125 0 L 0.84375 0 L 0.84375 -9.421875 L 2.78125 -9.421875 L 2.78125 -5.609375 L 6.5625 -5.609375 L 6.5625 -9.421875 L 8.5 -9.421875 Z M 8.5 0 "/></g></g></g></svg>